<mxfile host="Electron" agent="Mozilla/5.0 (Windows NT 10.0; Win64; x64) AppleWebKit/537.36 (KHTML, like Gecko) draw.io/26.2.2 Chrome/134.0.6998.178 Electron/35.1.2 Safari/537.36" version="26.2.2">
  <diagram id="R2lEEEUBdFMjLlhIrx00" name="Page-1">
    <mxGraphModel dx="3065" dy="2341" grid="1" gridSize="10" guides="1" tooltips="1" connect="1" arrows="1" fold="1" page="1" pageScale="1" pageWidth="850" pageHeight="1100" math="0" shadow="0" extFonts="Permanent Marker^https://fonts.googleapis.com/css?family=Permanent+Marker">
      <root>
        <mxCell id="0" />
        <mxCell id="1" parent="0" />
        <mxCell id="BiTTlBMMz1A8QfUqZxCa-33" value="기록하다" style="shape=rhombus;double=1;perimeter=rhombusPerimeter;whiteSpace=wrap;html=1;align=center;" parent="1" vertex="1">
          <mxGeometry x="-160" y="250" width="120" height="60" as="geometry" />
        </mxCell>
        <mxCell id="BiTTlBMMz1A8QfUqZxCa-40" value="" style="endArrow=none;html=1;rounded=0;entryX=0.5;entryY=0;entryDx=0;entryDy=0;" parent="1" source="BiTTlBMMz1A8QfUqZxCa-91" target="BiTTlBMMz1A8QfUqZxCa-33" edge="1">
          <mxGeometry relative="1" as="geometry">
            <mxPoint x="100" y="200.00000000000023" as="sourcePoint" />
            <mxPoint x="360" y="400" as="targetPoint" />
          </mxGeometry>
        </mxCell>
        <mxCell id="BiTTlBMMz1A8QfUqZxCa-41" value="1" style="resizable=0;html=1;whiteSpace=wrap;align=right;verticalAlign=bottom;" parent="BiTTlBMMz1A8QfUqZxCa-40" connectable="0" vertex="1">
          <mxGeometry x="1" relative="1" as="geometry">
            <mxPoint x="-10" as="offset" />
          </mxGeometry>
        </mxCell>
        <mxCell id="BiTTlBMMz1A8QfUqZxCa-42" value="" style="shape=link;html=1;rounded=0;entryX=0.5;entryY=1;entryDx=0;entryDy=0;" parent="1" source="BiTTlBMMz1A8QfUqZxCa-71" target="BiTTlBMMz1A8QfUqZxCa-33" edge="1">
          <mxGeometry relative="1" as="geometry">
            <mxPoint x="-100" y="510.17" as="sourcePoint" />
            <mxPoint x="40" y="430.17" as="targetPoint" />
          </mxGeometry>
        </mxCell>
        <mxCell id="BiTTlBMMz1A8QfUqZxCa-43" value="N" style="resizable=0;html=1;whiteSpace=wrap;align=right;verticalAlign=bottom;" parent="BiTTlBMMz1A8QfUqZxCa-42" connectable="0" vertex="1">
          <mxGeometry x="1" relative="1" as="geometry">
            <mxPoint x="-10" y="20" as="offset" />
          </mxGeometry>
        </mxCell>
        <mxCell id="BiTTlBMMz1A8QfUqZxCa-47" value="기록일" style="ellipse;whiteSpace=wrap;html=1;" parent="1" vertex="1">
          <mxGeometry x="-190" y="360" width="70" height="30" as="geometry" />
        </mxCell>
        <mxCell id="BiTTlBMMz1A8QfUqZxCa-48" value="" style="endArrow=none;html=1;rounded=0;" parent="1" source="BiTTlBMMz1A8QfUqZxCa-71" target="BiTTlBMMz1A8QfUqZxCa-47" edge="1">
          <mxGeometry relative="1" as="geometry">
            <mxPoint x="-190" y="370.17" as="sourcePoint" />
            <mxPoint x="60" y="380.17" as="targetPoint" />
          </mxGeometry>
        </mxCell>
        <mxCell id="BiTTlBMMz1A8QfUqZxCa-49" value="작성하다" style="shape=rhombus;perimeter=rhombusPerimeter;whiteSpace=wrap;html=1;align=center;" parent="1" vertex="1">
          <mxGeometry x="170" y="80" width="120" height="60" as="geometry" />
        </mxCell>
        <mxCell id="BiTTlBMMz1A8QfUqZxCa-74" value="참조하다" style="shape=rhombus;perimeter=rhombusPerimeter;whiteSpace=wrap;html=1;align=center;" parent="1" vertex="1">
          <mxGeometry x="280.00000000000006" y="570" width="120" height="60" as="geometry" />
        </mxCell>
        <mxCell id="BiTTlBMMz1A8QfUqZxCa-83" value="" style="endArrow=none;html=1;rounded=0;" parent="1" source="BiTTlBMMz1A8QfUqZxCa-71" target="BiTTlBMMz1A8QfUqZxCa-74" edge="1">
          <mxGeometry relative="1" as="geometry">
            <mxPoint x="320" y="430" as="sourcePoint" />
            <mxPoint x="480" y="430" as="targetPoint" />
            <Array as="points">
              <mxPoint x="-100" y="600" />
            </Array>
          </mxGeometry>
        </mxCell>
        <mxCell id="BiTTlBMMz1A8QfUqZxCa-84" value="1" style="resizable=0;html=1;whiteSpace=wrap;align=right;verticalAlign=bottom;" parent="BiTTlBMMz1A8QfUqZxCa-83" connectable="0" vertex="1">
          <mxGeometry x="1" relative="1" as="geometry">
            <mxPoint as="offset" />
          </mxGeometry>
        </mxCell>
        <mxCell id="BiTTlBMMz1A8QfUqZxCa-108" value="사용자ID" style="ellipse;whiteSpace=wrap;html=1;" parent="1" vertex="1">
          <mxGeometry x="553.75" y="-310" width="70" height="30" as="geometry" />
        </mxCell>
        <mxCell id="BiTTlBMMz1A8QfUqZxCa-109" value="작성날자" style="ellipse;whiteSpace=wrap;html=1;" parent="1" vertex="1">
          <mxGeometry x="623.75" y="-240" width="70" height="30" as="geometry" />
        </mxCell>
        <mxCell id="BiTTlBMMz1A8QfUqZxCa-110" value="내용" style="ellipse;whiteSpace=wrap;html=1;" parent="1" vertex="1">
          <mxGeometry x="605" y="-280" width="70" height="30" as="geometry" />
        </mxCell>
        <mxCell id="BiTTlBMMz1A8QfUqZxCa-113" value="&lt;u&gt;댓글ID&lt;/u&gt;" style="ellipse;whiteSpace=wrap;html=1;" parent="1" vertex="1">
          <mxGeometry x="435.27" y="-280" width="70" height="30" as="geometry" />
        </mxCell>
        <mxCell id="BiTTlBMMz1A8QfUqZxCa-114" value="&lt;u&gt;글ID&lt;/u&gt;" style="ellipse;whiteSpace=wrap;html=1;" parent="1" vertex="1">
          <mxGeometry x="478.48" y="-310" width="70" height="30" as="geometry" />
        </mxCell>
        <mxCell id="BiTTlBMMz1A8QfUqZxCa-115" value="댓글" style="shape=ext;margin=3;double=1;whiteSpace=wrap;html=1;align=center;" parent="1" vertex="1">
          <mxGeometry x="490.49" y="-250" width="130" height="70" as="geometry" />
        </mxCell>
        <mxCell id="BiTTlBMMz1A8QfUqZxCa-121" value="" style="endArrow=none;html=1;rounded=0;" parent="1" source="BiTTlBMMz1A8QfUqZxCa-113" target="BiTTlBMMz1A8QfUqZxCa-115" edge="1">
          <mxGeometry relative="1" as="geometry">
            <mxPoint x="427.5" y="-220.53" as="sourcePoint" />
            <mxPoint x="587.5" y="-220.53" as="targetPoint" />
          </mxGeometry>
        </mxCell>
        <mxCell id="BiTTlBMMz1A8QfUqZxCa-122" value="" style="endArrow=none;html=1;rounded=0;" parent="1" source="BiTTlBMMz1A8QfUqZxCa-114" target="BiTTlBMMz1A8QfUqZxCa-115" edge="1">
          <mxGeometry relative="1" as="geometry">
            <mxPoint x="427.5" y="-220.53" as="sourcePoint" />
            <mxPoint x="587.5" y="-220.53" as="targetPoint" />
          </mxGeometry>
        </mxCell>
        <mxCell id="BiTTlBMMz1A8QfUqZxCa-123" value="" style="endArrow=none;html=1;rounded=0;" parent="1" source="BiTTlBMMz1A8QfUqZxCa-108" target="BiTTlBMMz1A8QfUqZxCa-115" edge="1">
          <mxGeometry relative="1" as="geometry">
            <mxPoint x="427.5" y="-220.53" as="sourcePoint" />
            <mxPoint x="587.5" y="-220.53" as="targetPoint" />
          </mxGeometry>
        </mxCell>
        <mxCell id="BiTTlBMMz1A8QfUqZxCa-125" value="" style="endArrow=none;html=1;rounded=0;exitX=0;exitY=1;exitDx=0;exitDy=0;" parent="1" source="BiTTlBMMz1A8QfUqZxCa-110" target="BiTTlBMMz1A8QfUqZxCa-115" edge="1">
          <mxGeometry relative="1" as="geometry">
            <mxPoint x="427.5" y="-220.53" as="sourcePoint" />
            <mxPoint x="587.5" y="-220.53" as="targetPoint" />
          </mxGeometry>
        </mxCell>
        <mxCell id="BiTTlBMMz1A8QfUqZxCa-126" value="" style="endArrow=none;html=1;rounded=0;" parent="1" source="BiTTlBMMz1A8QfUqZxCa-115" target="BiTTlBMMz1A8QfUqZxCa-109" edge="1">
          <mxGeometry relative="1" as="geometry">
            <mxPoint x="427.5" y="-220.53" as="sourcePoint" />
            <mxPoint x="587.5" y="-220.53" as="targetPoint" />
          </mxGeometry>
        </mxCell>
        <mxCell id="BiTTlBMMz1A8QfUqZxCa-128" value="등록되다" style="shape=rhombus;double=1;perimeter=rhombusPerimeter;whiteSpace=wrap;html=1;align=center;" parent="1" vertex="1">
          <mxGeometry x="495.49" y="-90" width="120" height="60" as="geometry" />
        </mxCell>
        <mxCell id="BiTTlBMMz1A8QfUqZxCa-129" value="작성하다" style="shape=rhombus;perimeter=rhombusPerimeter;whiteSpace=wrap;html=1;align=center;" parent="1" vertex="1">
          <mxGeometry x="170.00000000000006" y="-85" width="120" height="60" as="geometry" />
        </mxCell>
        <mxCell id="BiTTlBMMz1A8QfUqZxCa-95" value="닉네임" style="ellipse;whiteSpace=wrap;html=1;" parent="1" vertex="1">
          <mxGeometry x="-179" y="-57" width="70" height="30" as="geometry" />
        </mxCell>
        <mxCell id="BiTTlBMMz1A8QfUqZxCa-96" value="전화번호" style="ellipse;whiteSpace=wrap;html=1;" parent="1" vertex="1">
          <mxGeometry x="-12" y="3" width="70" height="30" as="geometry" />
        </mxCell>
        <mxCell id="BiTTlBMMz1A8QfUqZxCa-97" value="이메일" style="ellipse;whiteSpace=wrap;html=1;" parent="1" vertex="1">
          <mxGeometry x="-134" y="-85" width="70" height="30" as="geometry" />
        </mxCell>
        <mxCell id="BiTTlBMMz1A8QfUqZxCa-98" value="성별" style="ellipse;whiteSpace=wrap;html=1;" parent="1" vertex="1">
          <mxGeometry x="-82" y="-56" width="70" height="30" as="geometry" />
        </mxCell>
        <mxCell id="BiTTlBMMz1A8QfUqZxCa-104" value="" style="endArrow=none;html=1;rounded=0;" parent="1" source="BiTTlBMMz1A8QfUqZxCa-91" target="BiTTlBMMz1A8QfUqZxCa-96" edge="1">
          <mxGeometry width="50" height="50" relative="1" as="geometry">
            <mxPoint x="-2.2737367544323206e-13" y="-110" as="sourcePoint" />
            <mxPoint x="110" y="-210" as="targetPoint" />
          </mxGeometry>
        </mxCell>
        <mxCell id="BiTTlBMMz1A8QfUqZxCa-103" value="" style="endArrow=none;html=1;rounded=0;" parent="1" source="BiTTlBMMz1A8QfUqZxCa-91" target="BiTTlBMMz1A8QfUqZxCa-97" edge="1">
          <mxGeometry width="50" height="50" relative="1" as="geometry">
            <mxPoint y="-110" as="sourcePoint" />
            <mxPoint x="140" y="-190" as="targetPoint" />
          </mxGeometry>
        </mxCell>
        <mxCell id="BiTTlBMMz1A8QfUqZxCa-105" value="" style="endArrow=none;html=1;rounded=0;" parent="1" source="BiTTlBMMz1A8QfUqZxCa-91" target="BiTTlBMMz1A8QfUqZxCa-98" edge="1">
          <mxGeometry width="50" height="50" relative="1" as="geometry">
            <mxPoint x="-2.2737367544323206e-13" y="-110" as="sourcePoint" />
            <mxPoint x="140" y="-190" as="targetPoint" />
          </mxGeometry>
        </mxCell>
        <mxCell id="BiTTlBMMz1A8QfUqZxCa-56" value="본문" style="ellipse;whiteSpace=wrap;html=1;container=0;" parent="1" vertex="1">
          <mxGeometry x="644.13" y="20" width="70" height="30" as="geometry" />
        </mxCell>
        <mxCell id="BiTTlBMMz1A8QfUqZxCa-65" value="" style="endArrow=none;html=1;rounded=0;" parent="1" source="BiTTlBMMz1A8QfUqZxCa-56" target="BiTTlBMMz1A8QfUqZxCa-44" edge="1">
          <mxGeometry relative="1" as="geometry">
            <mxPoint x="502.23" y="295" as="sourcePoint" />
            <mxPoint x="623.9700000000003" y="79.65866257154812" as="targetPoint" />
          </mxGeometry>
        </mxCell>
        <mxCell id="BiTTlBMMz1A8QfUqZxCa-44" value="커뮤니티" style="rounded=0;whiteSpace=wrap;html=1;container=0;" parent="1" vertex="1">
          <mxGeometry x="495.49" y="80" width="120" height="60" as="geometry" />
        </mxCell>
        <mxCell id="BiTTlBMMz1A8QfUqZxCa-54" value="&lt;u&gt;글ID&lt;/u&gt;" style="ellipse;whiteSpace=wrap;html=1;container=0;" parent="1" vertex="1">
          <mxGeometry x="644.13" y="132.5" width="70" height="30" as="geometry" />
        </mxCell>
        <mxCell id="BiTTlBMMz1A8QfUqZxCa-55" value="제목" style="ellipse;whiteSpace=wrap;html=1;container=0;" parent="1" vertex="1">
          <mxGeometry x="644.13" y="57.5" width="70" height="30" as="geometry" />
        </mxCell>
        <mxCell id="BiTTlBMMz1A8QfUqZxCa-57" value="작성날자" style="ellipse;whiteSpace=wrap;html=1;container=0;" parent="1" vertex="1">
          <mxGeometry x="570" y="-20" width="70" height="30" as="geometry" />
        </mxCell>
        <mxCell id="BiTTlBMMz1A8QfUqZxCa-60" value="작성자ID" style="ellipse;whiteSpace=wrap;html=1;container=0;" parent="1" vertex="1">
          <mxGeometry x="644.13" y="95" width="70" height="30" as="geometry" />
        </mxCell>
        <mxCell id="BiTTlBMMz1A8QfUqZxCa-63" value="" style="endArrow=none;html=1;rounded=0;" parent="1" source="BiTTlBMMz1A8QfUqZxCa-54" target="BiTTlBMMz1A8QfUqZxCa-44" edge="1">
          <mxGeometry relative="1" as="geometry">
            <mxPoint x="255.26999999999998" y="390" as="sourcePoint" />
            <mxPoint x="465.27" y="320.0000000000002" as="targetPoint" />
          </mxGeometry>
        </mxCell>
        <mxCell id="BiTTlBMMz1A8QfUqZxCa-64" value="" style="endArrow=none;html=1;rounded=0;" parent="1" source="BiTTlBMMz1A8QfUqZxCa-60" target="BiTTlBMMz1A8QfUqZxCa-44" edge="1">
          <mxGeometry relative="1" as="geometry">
            <mxPoint x="493.75" y="330" as="sourcePoint" />
            <mxPoint x="703.75" y="260.0000000000002" as="targetPoint" />
          </mxGeometry>
        </mxCell>
        <mxCell id="BiTTlBMMz1A8QfUqZxCa-66" value="" style="endArrow=none;html=1;rounded=0;" parent="1" source="BiTTlBMMz1A8QfUqZxCa-57" target="BiTTlBMMz1A8QfUqZxCa-44" edge="1">
          <mxGeometry relative="1" as="geometry">
            <mxPoint x="493.75" y="330" as="sourcePoint" />
            <mxPoint x="703.75" y="260.0000000000002" as="targetPoint" />
          </mxGeometry>
        </mxCell>
        <mxCell id="BiTTlBMMz1A8QfUqZxCa-67" value="" style="endArrow=none;html=1;rounded=0;" parent="1" source="BiTTlBMMz1A8QfUqZxCa-55" target="BiTTlBMMz1A8QfUqZxCa-44" edge="1">
          <mxGeometry relative="1" as="geometry">
            <mxPoint x="502.23" y="295" as="sourcePoint" />
            <mxPoint x="623.9700000000003" y="92.56339581036377" as="targetPoint" />
          </mxGeometry>
        </mxCell>
        <mxCell id="BiTTlBMMz1A8QfUqZxCa-70" value="경로ID" style="ellipse;whiteSpace=wrap;html=1;container=0;" parent="1" vertex="1">
          <mxGeometry x="644.13" y="-20" width="70" height="30" as="geometry" />
        </mxCell>
        <mxCell id="BiTTlBMMz1A8QfUqZxCa-73" value="" style="endArrow=none;html=1;rounded=0;" parent="1" source="BiTTlBMMz1A8QfUqZxCa-70" target="BiTTlBMMz1A8QfUqZxCa-44" edge="1">
          <mxGeometry relative="1" as="geometry">
            <mxPoint x="333.75" y="155" as="sourcePoint" />
            <mxPoint x="623.9700000000003" y="65" as="targetPoint" />
          </mxGeometry>
        </mxCell>
        <mxCell id="BiTTlBMMz1A8QfUqZxCa-139" value="" style="shape=link;html=1;rounded=0;" parent="1" source="BiTTlBMMz1A8QfUqZxCa-115" target="BiTTlBMMz1A8QfUqZxCa-128" edge="1">
          <mxGeometry relative="1" as="geometry">
            <mxPoint x="508.13" y="-10.530000000000001" as="sourcePoint" />
            <mxPoint x="668.13" y="-10.530000000000001" as="targetPoint" />
          </mxGeometry>
        </mxCell>
        <mxCell id="BiTTlBMMz1A8QfUqZxCa-140" value="1" style="resizable=0;html=1;whiteSpace=wrap;align=right;verticalAlign=bottom;direction=south;" parent="BiTTlBMMz1A8QfUqZxCa-139" connectable="0" vertex="1">
          <mxGeometry x="1" relative="1" as="geometry">
            <mxPoint x="-5" as="offset" />
          </mxGeometry>
        </mxCell>
        <mxCell id="BiTTlBMMz1A8QfUqZxCa-141" value="" style="endArrow=none;html=1;rounded=0;" parent="1" source="BiTTlBMMz1A8QfUqZxCa-44" target="BiTTlBMMz1A8QfUqZxCa-128" edge="1">
          <mxGeometry relative="1" as="geometry">
            <mxPoint x="545.27" y="190" as="sourcePoint" />
            <mxPoint x="235.26999999999998" y="40" as="targetPoint" />
          </mxGeometry>
        </mxCell>
        <mxCell id="BiTTlBMMz1A8QfUqZxCa-142" value="N" style="resizable=0;html=1;whiteSpace=wrap;align=right;verticalAlign=bottom;" parent="BiTTlBMMz1A8QfUqZxCa-141" connectable="0" vertex="1">
          <mxGeometry x="1" relative="1" as="geometry">
            <mxPoint x="-4" y="20" as="offset" />
          </mxGeometry>
        </mxCell>
        <mxCell id="BiTTlBMMz1A8QfUqZxCa-91" value="사용자" style="rounded=0;whiteSpace=wrap;html=1;" parent="1" vertex="1">
          <mxGeometry x="-160" y="80" width="120" height="60" as="geometry" />
        </mxCell>
        <mxCell id="BiTTlBMMz1A8QfUqZxCa-92" value="ID" style="ellipse;whiteSpace=wrap;html=1;" parent="1" vertex="1">
          <mxGeometry x="-253" y="3" width="70" height="30" as="geometry" />
        </mxCell>
        <mxCell id="BiTTlBMMz1A8QfUqZxCa-94" value="&lt;u&gt;사용자ID&lt;/u&gt;" style="ellipse;whiteSpace=wrap;html=1;" parent="1" vertex="1">
          <mxGeometry x="-269" y="36" width="70" height="30" as="geometry" />
        </mxCell>
        <mxCell id="BiTTlBMMz1A8QfUqZxCa-99" value="" style="endArrow=none;html=1;rounded=0;" parent="1" source="BiTTlBMMz1A8QfUqZxCa-91" target="BiTTlBMMz1A8QfUqZxCa-92" edge="1">
          <mxGeometry width="50" height="50" relative="1" as="geometry">
            <mxPoint x="-70" y="110" as="sourcePoint" />
            <mxPoint x="-20" y="60" as="targetPoint" />
          </mxGeometry>
        </mxCell>
        <mxCell id="BiTTlBMMz1A8QfUqZxCa-100" value="" style="endArrow=none;html=1;rounded=0;" parent="1" source="BiTTlBMMz1A8QfUqZxCa-91" target="BiTTlBMMz1A8QfUqZxCa-94" edge="1">
          <mxGeometry width="50" height="50" relative="1" as="geometry">
            <mxPoint x="-70" y="110" as="sourcePoint" />
            <mxPoint x="-20" y="60" as="targetPoint" />
          </mxGeometry>
        </mxCell>
        <mxCell id="BiTTlBMMz1A8QfUqZxCa-101" value="" style="endArrow=none;html=1;rounded=0;" parent="1" source="BiTTlBMMz1A8QfUqZxCa-91" target="BiTTlBMMz1A8QfUqZxCa-93" edge="1">
          <mxGeometry width="50" height="50" relative="1" as="geometry">
            <mxPoint x="-100" y="80" as="sourcePoint" />
            <mxPoint x="-20" y="60" as="targetPoint" />
          </mxGeometry>
        </mxCell>
        <mxCell id="BiTTlBMMz1A8QfUqZxCa-102" value="" style="endArrow=none;html=1;rounded=0;" parent="1" source="BiTTlBMMz1A8QfUqZxCa-91" target="BiTTlBMMz1A8QfUqZxCa-95" edge="1">
          <mxGeometry width="50" height="50" relative="1" as="geometry">
            <mxPoint x="-100" y="80" as="sourcePoint" />
            <mxPoint x="-20" y="60" as="targetPoint" />
          </mxGeometry>
        </mxCell>
        <mxCell id="BiTTlBMMz1A8QfUqZxCa-106" value="생성일" style="ellipse;whiteSpace=wrap;html=1;" parent="1" vertex="1">
          <mxGeometry x="-260" y="70" width="70" height="30" as="geometry" />
        </mxCell>
        <mxCell id="BiTTlBMMz1A8QfUqZxCa-107" value="" style="endArrow=none;html=1;rounded=0;" parent="1" source="BiTTlBMMz1A8QfUqZxCa-91" target="BiTTlBMMz1A8QfUqZxCa-106" edge="1">
          <mxGeometry relative="1" as="geometry">
            <mxPoint x="-100" y="150" as="sourcePoint" />
            <mxPoint x="60" y="150" as="targetPoint" />
          </mxGeometry>
        </mxCell>
        <mxCell id="9UmY1VL2F1LapKhUl30l-1" value="크롤링" style="rounded=0;whiteSpace=wrap;html=1;container=0;" parent="1" vertex="1">
          <mxGeometry x="-520" y="-125" width="120" height="60" as="geometry" />
        </mxCell>
        <mxCell id="9UmY1VL2F1LapKhUl30l-3" value="위험 종류" style="ellipse;whiteSpace=wrap;html=1;container=0;" parent="1" vertex="1">
          <mxGeometry x="-530" y="-185" width="70" height="30" as="geometry" />
        </mxCell>
        <mxCell id="9UmY1VL2F1LapKhUl30l-4" value="위치" style="ellipse;whiteSpace=wrap;html=1;container=0;" parent="1" vertex="1">
          <mxGeometry x="-450" y="-185" width="70" height="30" as="geometry" />
        </mxCell>
        <mxCell id="9UmY1VL2F1LapKhUl30l-5" value="발생시간" style="ellipse;whiteSpace=wrap;html=1;container=0;" parent="1" vertex="1">
          <mxGeometry x="-390" y="-155" width="70" height="30" as="geometry" />
        </mxCell>
        <mxCell id="9UmY1VL2F1LapKhUl30l-6" value="&lt;u&gt;크롤링ID&lt;/u&gt;" style="ellipse;whiteSpace=wrap;html=1;container=0;" parent="1" vertex="1">
          <mxGeometry x="-590" y="-155" width="70" height="30" as="geometry" />
        </mxCell>
        <mxCell id="9UmY1VL2F1LapKhUl30l-8" value="" style="endArrow=none;html=1;rounded=0;" parent="1" source="9UmY1VL2F1LapKhUl30l-6" target="9UmY1VL2F1LapKhUl30l-1" edge="1">
          <mxGeometry relative="1" as="geometry">
            <mxPoint x="-700" y="-160" as="sourcePoint" />
            <mxPoint x="-540" y="-160" as="targetPoint" />
          </mxGeometry>
        </mxCell>
        <mxCell id="9UmY1VL2F1LapKhUl30l-9" value="" style="endArrow=none;html=1;rounded=0;" parent="1" source="9UmY1VL2F1LapKhUl30l-3" target="9UmY1VL2F1LapKhUl30l-1" edge="1">
          <mxGeometry relative="1" as="geometry">
            <mxPoint x="-460" y="-240" as="sourcePoint" />
            <mxPoint x="-420" y="-140" as="targetPoint" />
          </mxGeometry>
        </mxCell>
        <mxCell id="9UmY1VL2F1LapKhUl30l-10" value="" style="endArrow=none;html=1;rounded=0;" parent="1" source="9UmY1VL2F1LapKhUl30l-4" target="9UmY1VL2F1LapKhUl30l-1" edge="1">
          <mxGeometry relative="1" as="geometry">
            <mxPoint x="-700" y="-160" as="sourcePoint" />
            <mxPoint x="-540" y="-160" as="targetPoint" />
          </mxGeometry>
        </mxCell>
        <mxCell id="9UmY1VL2F1LapKhUl30l-11" value="" style="endArrow=none;html=1;rounded=0;" parent="1" source="9UmY1VL2F1LapKhUl30l-5" target="9UmY1VL2F1LapKhUl30l-1" edge="1">
          <mxGeometry relative="1" as="geometry">
            <mxPoint x="-700" y="-160" as="sourcePoint" />
            <mxPoint x="-540" y="-160" as="targetPoint" />
          </mxGeometry>
        </mxCell>
        <mxCell id="9UmY1VL2F1LapKhUl30l-13" value="신고내역" style="rounded=0;whiteSpace=wrap;html=1;container=0;" parent="1" vertex="1">
          <mxGeometry x="495.49" y="390" width="120" height="60" as="geometry" />
        </mxCell>
        <mxCell id="9UmY1VL2F1LapKhUl30l-14" value="글ID" style="ellipse;whiteSpace=wrap;html=1;container=0;" parent="1" vertex="1">
          <mxGeometry x="440" y="470" width="70" height="30" as="geometry" />
        </mxCell>
        <mxCell id="9UmY1VL2F1LapKhUl30l-15" value="사용자ID" style="ellipse;whiteSpace=wrap;html=1;container=0;" parent="1" vertex="1">
          <mxGeometry x="420.49" y="405" width="70" height="30" as="geometry" />
        </mxCell>
        <mxCell id="9UmY1VL2F1LapKhUl30l-16" value="내용" style="ellipse;whiteSpace=wrap;html=1;container=0;" parent="1" vertex="1">
          <mxGeometry x="630" y="435" width="70" height="30" as="geometry" />
        </mxCell>
        <mxCell id="9UmY1VL2F1LapKhUl30l-17" value="신고날자" style="ellipse;whiteSpace=wrap;html=1;container=0;" parent="1" vertex="1">
          <mxGeometry x="520.49" y="470" width="70" height="30" as="geometry" />
        </mxCell>
        <mxCell id="9UmY1VL2F1LapKhUl30l-18" value="처리상태" style="ellipse;whiteSpace=wrap;html=1;container=0;" parent="1" vertex="1">
          <mxGeometry x="600" y="470" width="70" height="30" as="geometry" />
        </mxCell>
        <mxCell id="9UmY1VL2F1LapKhUl30l-21" value="&lt;u&gt;신고ID&lt;/u&gt;" style="ellipse;whiteSpace=wrap;html=1;container=0;" parent="1" vertex="1">
          <mxGeometry x="408.48" y="440" width="70" height="30" as="geometry" />
        </mxCell>
        <mxCell id="9UmY1VL2F1LapKhUl30l-22" value="" style="endArrow=none;html=1;rounded=0;" parent="1" source="9UmY1VL2F1LapKhUl30l-13" target="9UmY1VL2F1LapKhUl30l-17" edge="1">
          <mxGeometry relative="1" as="geometry">
            <mxPoint x="365.49" y="270" as="sourcePoint" />
            <mxPoint x="525.49" y="270" as="targetPoint" />
          </mxGeometry>
        </mxCell>
        <mxCell id="9UmY1VL2F1LapKhUl30l-23" value="" style="endArrow=none;html=1;rounded=0;" parent="1" source="9UmY1VL2F1LapKhUl30l-13" target="9UmY1VL2F1LapKhUl30l-15" edge="1">
          <mxGeometry relative="1" as="geometry">
            <mxPoint x="334.24" y="309.52" as="sourcePoint" />
            <mxPoint x="494.24" y="309.52" as="targetPoint" />
          </mxGeometry>
        </mxCell>
        <mxCell id="9UmY1VL2F1LapKhUl30l-24" value="" style="endArrow=none;html=1;rounded=0;" parent="1" source="9UmY1VL2F1LapKhUl30l-13" target="9UmY1VL2F1LapKhUl30l-21" edge="1">
          <mxGeometry relative="1" as="geometry">
            <mxPoint x="316.74" y="340" as="sourcePoint" />
            <mxPoint x="476.74" y="340" as="targetPoint" />
          </mxGeometry>
        </mxCell>
        <mxCell id="9UmY1VL2F1LapKhUl30l-25" value="" style="endArrow=none;html=1;rounded=0;" parent="1" source="9UmY1VL2F1LapKhUl30l-18" target="9UmY1VL2F1LapKhUl30l-13" edge="1">
          <mxGeometry relative="1" as="geometry">
            <mxPoint x="296.74" y="364.76" as="sourcePoint" />
            <mxPoint x="456.74" y="364.76" as="targetPoint" />
          </mxGeometry>
        </mxCell>
        <mxCell id="9UmY1VL2F1LapKhUl30l-26" value="" style="endArrow=none;html=1;rounded=0;" parent="1" source="9UmY1VL2F1LapKhUl30l-16" target="9UmY1VL2F1LapKhUl30l-13" edge="1">
          <mxGeometry relative="1" as="geometry">
            <mxPoint x="271.74" y="405" as="sourcePoint" />
            <mxPoint x="431.74" y="405" as="targetPoint" />
          </mxGeometry>
        </mxCell>
        <mxCell id="9UmY1VL2F1LapKhUl30l-28" value="" style="endArrow=none;html=1;rounded=0;" parent="1" source="9UmY1VL2F1LapKhUl30l-13" target="9UmY1VL2F1LapKhUl30l-14" edge="1">
          <mxGeometry relative="1" as="geometry">
            <mxPoint x="264.87" y="300" as="sourcePoint" />
            <mxPoint x="424.87" y="300" as="targetPoint" />
          </mxGeometry>
        </mxCell>
        <mxCell id="9UmY1VL2F1LapKhUl30l-30" value="신고하다" style="shape=rhombus;perimeter=rhombusPerimeter;whiteSpace=wrap;html=1;align=center;" parent="1" vertex="1">
          <mxGeometry x="170" y="236" width="120" height="60" as="geometry" />
        </mxCell>
        <mxCell id="9UmY1VL2F1LapKhUl30l-37" value="참조하다" style="shape=rhombus;perimeter=rhombusPerimeter;whiteSpace=wrap;html=1;align=center;" parent="1" vertex="1">
          <mxGeometry x="495.49" y="236" width="120" height="60" as="geometry" />
        </mxCell>
        <mxCell id="9UmY1VL2F1LapKhUl30l-38" value="" style="shape=link;html=1;rounded=0;" parent="1" source="BiTTlBMMz1A8QfUqZxCa-44" target="9UmY1VL2F1LapKhUl30l-37" edge="1">
          <mxGeometry relative="1" as="geometry">
            <mxPoint x="171.24" y="510" as="sourcePoint" />
            <mxPoint x="9.240000000000038" y="740" as="targetPoint" />
          </mxGeometry>
        </mxCell>
        <mxCell id="9UmY1VL2F1LapKhUl30l-39" value="&amp;nbsp;N" style="resizable=0;html=1;whiteSpace=wrap;align=right;verticalAlign=bottom;" parent="9UmY1VL2F1LapKhUl30l-38" connectable="0" vertex="1">
          <mxGeometry x="1" relative="1" as="geometry">
            <mxPoint x="-7" y="-6" as="offset" />
          </mxGeometry>
        </mxCell>
        <mxCell id="9UmY1VL2F1LapKhUl30l-40" value="" style="endArrow=none;html=1;rounded=0;" parent="1" source="9UmY1VL2F1LapKhUl30l-13" target="9UmY1VL2F1LapKhUl30l-37" edge="1">
          <mxGeometry relative="1" as="geometry">
            <mxPoint x="-330.76" y="850" as="sourcePoint" />
            <mxPoint x="-10.759999999999962" y="740" as="targetPoint" />
          </mxGeometry>
        </mxCell>
        <mxCell id="9UmY1VL2F1LapKhUl30l-41" value="1" style="resizable=0;html=1;whiteSpace=wrap;align=right;verticalAlign=bottom;" parent="9UmY1VL2F1LapKhUl30l-40" connectable="0" vertex="1">
          <mxGeometry x="1" relative="1" as="geometry">
            <mxPoint x="-7" y="24" as="offset" />
          </mxGeometry>
        </mxCell>
        <mxCell id="9UmY1VL2F1LapKhUl30l-42" value="DM" style="rounded=0;whiteSpace=wrap;html=1;" parent="1" vertex="1">
          <mxGeometry x="-800" y="80" width="120" height="60" as="geometry" />
        </mxCell>
        <mxCell id="9UmY1VL2F1LapKhUl30l-43" value="사용자ID" style="ellipse;whiteSpace=wrap;html=1;" parent="1" vertex="1">
          <mxGeometry x="-830" y="20" width="70" height="30" as="geometry" />
        </mxCell>
        <mxCell id="9UmY1VL2F1LapKhUl30l-44" value="내용" style="ellipse;whiteSpace=wrap;html=1;" parent="1" vertex="1">
          <mxGeometry x="-710" y="20" width="70" height="30" as="geometry" />
        </mxCell>
        <mxCell id="9UmY1VL2F1LapKhUl30l-45" value="보낸날자" style="ellipse;whiteSpace=wrap;html=1;" parent="1" vertex="1">
          <mxGeometry x="-670" y="50" width="70" height="30" as="geometry" />
        </mxCell>
        <mxCell id="9UmY1VL2F1LapKhUl30l-46" value="" style="endArrow=none;html=1;rounded=0;" parent="1" source="9UmY1VL2F1LapKhUl30l-45" target="9UmY1VL2F1LapKhUl30l-42" edge="1">
          <mxGeometry relative="1" as="geometry">
            <mxPoint x="-885" y="22.5" as="sourcePoint" />
            <mxPoint x="-725" y="22.5" as="targetPoint" />
          </mxGeometry>
        </mxCell>
        <mxCell id="9UmY1VL2F1LapKhUl30l-47" value="" style="endArrow=none;html=1;rounded=0;" parent="1" source="9UmY1VL2F1LapKhUl30l-44" target="9UmY1VL2F1LapKhUl30l-42" edge="1">
          <mxGeometry relative="1" as="geometry">
            <mxPoint x="-930.0022863495446" y="132.4976225576075" as="sourcePoint" />
            <mxPoint x="-698.45" y="163.08" as="targetPoint" />
          </mxGeometry>
        </mxCell>
        <mxCell id="9UmY1VL2F1LapKhUl30l-48" value="" style="endArrow=none;html=1;rounded=0;" parent="1" source="9UmY1VL2F1LapKhUl30l-43" target="9UmY1VL2F1LapKhUl30l-42" edge="1">
          <mxGeometry relative="1" as="geometry">
            <mxPoint x="-885" y="22.5" as="sourcePoint" />
            <mxPoint x="-725" y="22.5" as="targetPoint" />
          </mxGeometry>
        </mxCell>
        <mxCell id="9UmY1VL2F1LapKhUl30l-49" value="&lt;u&gt;DM-ID&lt;/u&gt;" style="ellipse;whiteSpace=wrap;html=1;" parent="1" vertex="1">
          <mxGeometry x="-870" y="50" width="70" height="30" as="geometry" />
        </mxCell>
        <mxCell id="9UmY1VL2F1LapKhUl30l-50" value="" style="endArrow=none;html=1;rounded=0;" parent="1" source="9UmY1VL2F1LapKhUl30l-49" target="9UmY1VL2F1LapKhUl30l-42" edge="1">
          <mxGeometry relative="1" as="geometry">
            <mxPoint x="-950" y="62.5" as="sourcePoint" />
            <mxPoint x="-790" y="62.5" as="targetPoint" />
          </mxGeometry>
        </mxCell>
        <mxCell id="9UmY1VL2F1LapKhUl30l-52" value="메세지를 받다" style="shape=rhombus;perimeter=rhombusPerimeter;whiteSpace=wrap;html=1;align=center;" parent="1" vertex="1">
          <mxGeometry x="-510" y="80" width="120" height="60" as="geometry" />
        </mxCell>
        <mxCell id="BiTTlBMMz1A8QfUqZxCa-93" value="비밀번호" style="ellipse;whiteSpace=wrap;html=1;" parent="1" vertex="1">
          <mxGeometry x="-221" y="-28" width="70" height="30" as="geometry" />
        </mxCell>
        <mxCell id="ymXso0ggI-foQuHuiPl7-1" value="역할" style="ellipse;whiteSpace=wrap;html=1;" parent="1" vertex="1">
          <mxGeometry x="-40" y="-27" width="70" height="30" as="geometry" />
        </mxCell>
        <mxCell id="ymXso0ggI-foQuHuiPl7-2" value="" style="endArrow=none;html=1;rounded=0;" parent="1" source="BiTTlBMMz1A8QfUqZxCa-91" target="ymXso0ggI-foQuHuiPl7-1" edge="1">
          <mxGeometry relative="1" as="geometry">
            <mxPoint x="-230" y="10" as="sourcePoint" />
            <mxPoint x="-70" y="10" as="targetPoint" />
          </mxGeometry>
        </mxCell>
        <mxCell id="ymXso0ggI-foQuHuiPl7-3" value="알람을 받다" style="shape=rhombus;perimeter=rhombusPerimeter;whiteSpace=wrap;html=1;align=center;" parent="1" vertex="1">
          <mxGeometry x="-510" y="250" width="120" height="60" as="geometry" />
        </mxCell>
        <mxCell id="ymXso0ggI-foQuHuiPl7-4" value="관리자ID" style="ellipse;whiteSpace=wrap;html=1;" parent="1" vertex="1">
          <mxGeometry x="-775" y="-10" width="70" height="30" as="geometry" />
        </mxCell>
        <mxCell id="ymXso0ggI-foQuHuiPl7-5" value="" style="endArrow=none;html=1;rounded=0;" parent="1" source="ymXso0ggI-foQuHuiPl7-4" target="9UmY1VL2F1LapKhUl30l-42" edge="1">
          <mxGeometry relative="1" as="geometry">
            <mxPoint x="-920" y="117.5" as="sourcePoint" />
            <mxPoint x="-760" y="117.5" as="targetPoint" />
          </mxGeometry>
        </mxCell>
        <mxCell id="ymXso0ggI-foQuHuiPl7-7" value="알람" style="rounded=0;whiteSpace=wrap;html=1;" parent="1" vertex="1">
          <mxGeometry x="-800" y="394.17" width="120" height="60" as="geometry" />
        </mxCell>
        <mxCell id="ymXso0ggI-foQuHuiPl7-9" value="내용" style="ellipse;whiteSpace=wrap;html=1;" parent="1" vertex="1">
          <mxGeometry x="-775" y="316" width="70" height="30" as="geometry" />
        </mxCell>
        <mxCell id="ymXso0ggI-foQuHuiPl7-10" value="보낸날자" style="ellipse;whiteSpace=wrap;html=1;" parent="1" vertex="1">
          <mxGeometry x="-720" y="340" width="70" height="30" as="geometry" />
        </mxCell>
        <mxCell id="ymXso0ggI-foQuHuiPl7-12" value="사용자ID" style="ellipse;whiteSpace=wrap;html=1;" parent="1" vertex="1">
          <mxGeometry x="-880" y="370" width="70" height="30" as="geometry" />
        </mxCell>
        <mxCell id="ymXso0ggI-foQuHuiPl7-18" value="&lt;u&gt;알람ID&lt;/u&gt;" style="ellipse;whiteSpace=wrap;html=1;" parent="1" vertex="1">
          <mxGeometry x="-890" y="410" width="70" height="30" as="geometry" />
        </mxCell>
        <mxCell id="ymXso0ggI-foQuHuiPl7-19" value="관리자ID" style="ellipse;whiteSpace=wrap;html=1;" parent="1" vertex="1">
          <mxGeometry x="-830" y="340" width="70" height="30" as="geometry" />
        </mxCell>
        <mxCell id="ymXso0ggI-foQuHuiPl7-20" value="" style="endArrow=none;html=1;rounded=0;" parent="1" source="ymXso0ggI-foQuHuiPl7-18" target="ymXso0ggI-foQuHuiPl7-7" edge="1">
          <mxGeometry relative="1" as="geometry">
            <mxPoint x="-910" y="215" as="sourcePoint" />
            <mxPoint x="-750" y="215" as="targetPoint" />
          </mxGeometry>
        </mxCell>
        <mxCell id="ymXso0ggI-foQuHuiPl7-21" value="" style="endArrow=none;html=1;rounded=0;" parent="1" source="ymXso0ggI-foQuHuiPl7-12" target="ymXso0ggI-foQuHuiPl7-7" edge="1">
          <mxGeometry relative="1" as="geometry">
            <mxPoint x="-910" y="215" as="sourcePoint" />
            <mxPoint x="-750" y="215" as="targetPoint" />
          </mxGeometry>
        </mxCell>
        <mxCell id="ymXso0ggI-foQuHuiPl7-22" value="" style="endArrow=none;html=1;rounded=0;" parent="1" source="ymXso0ggI-foQuHuiPl7-19" target="ymXso0ggI-foQuHuiPl7-7" edge="1">
          <mxGeometry relative="1" as="geometry">
            <mxPoint x="-910" y="215" as="sourcePoint" />
            <mxPoint x="-750" y="215" as="targetPoint" />
          </mxGeometry>
        </mxCell>
        <mxCell id="ymXso0ggI-foQuHuiPl7-23" value="" style="endArrow=none;html=1;rounded=0;" parent="1" source="ymXso0ggI-foQuHuiPl7-10" target="ymXso0ggI-foQuHuiPl7-7" edge="1">
          <mxGeometry relative="1" as="geometry">
            <mxPoint x="-910" y="215" as="sourcePoint" />
            <mxPoint x="-980" y="415" as="targetPoint" />
          </mxGeometry>
        </mxCell>
        <mxCell id="ymXso0ggI-foQuHuiPl7-24" value="" style="endArrow=none;html=1;rounded=0;" parent="1" source="ymXso0ggI-foQuHuiPl7-9" target="ymXso0ggI-foQuHuiPl7-7" edge="1">
          <mxGeometry relative="1" as="geometry">
            <mxPoint x="-910" y="215" as="sourcePoint" />
            <mxPoint x="-750" y="215" as="targetPoint" />
          </mxGeometry>
        </mxCell>
        <mxCell id="BiTTlBMMz1A8QfUqZxCa-23" value="&lt;u&gt;경로-ID&lt;/u&gt;" style="ellipse;whiteSpace=wrap;html=1;container=0;" parent="1" vertex="1">
          <mxGeometry x="-30" y="389.99999999999994" width="70" height="30" as="geometry" />
        </mxCell>
        <mxCell id="BiTTlBMMz1A8QfUqZxCa-24" value="&lt;u&gt;사용자-ID&lt;/u&gt;" style="ellipse;whiteSpace=wrap;html=1;container=0;" parent="1" vertex="1">
          <mxGeometry x="-250" y="424.16999999999996" width="70" height="30" as="geometry" />
        </mxCell>
        <mxCell id="BiTTlBMMz1A8QfUqZxCa-26" value="경로 정보" style="ellipse;whiteSpace=wrap;html=1;container=0;" parent="1" vertex="1">
          <mxGeometry x="-90" y="359.99999999999994" width="70" height="30" as="geometry" />
        </mxCell>
        <mxCell id="BiTTlBMMz1A8QfUqZxCa-30" value="" style="endArrow=none;html=1;rounded=0;" parent="1" source="BiTTlBMMz1A8QfUqZxCa-23" target="BiTTlBMMz1A8QfUqZxCa-71" edge="1">
          <mxGeometry width="50" height="50" relative="1" as="geometry">
            <mxPoint x="-70" y="354.17" as="sourcePoint" />
            <mxPoint x="-100" y="454.16999999999996" as="targetPoint" />
          </mxGeometry>
        </mxCell>
        <mxCell id="BiTTlBMMz1A8QfUqZxCa-31" value="" style="endArrow=none;html=1;rounded=0;" parent="1" source="BiTTlBMMz1A8QfUqZxCa-26" target="BiTTlBMMz1A8QfUqZxCa-71" edge="1">
          <mxGeometry width="50" height="50" relative="1" as="geometry">
            <mxPoint x="-70" y="354.17" as="sourcePoint" />
            <mxPoint x="-100" y="454.16999999999996" as="targetPoint" />
          </mxGeometry>
        </mxCell>
        <mxCell id="BiTTlBMMz1A8QfUqZxCa-32" value="" style="endArrow=none;html=1;rounded=0;" parent="1" source="BiTTlBMMz1A8QfUqZxCa-24" target="BiTTlBMMz1A8QfUqZxCa-71" edge="1">
          <mxGeometry width="50" height="50" relative="1" as="geometry">
            <mxPoint x="-70" y="354.17" as="sourcePoint" />
            <mxPoint x="-100" y="454.16999999999996" as="targetPoint" />
          </mxGeometry>
        </mxCell>
        <mxCell id="BiTTlBMMz1A8QfUqZxCa-36" value="" style="endArrow=none;html=1;rounded=0;" parent="1" source="vxmtg55Cb_DlXkQCYcBe-1" target="BiTTlBMMz1A8QfUqZxCa-71" edge="1">
          <mxGeometry relative="1" as="geometry">
            <mxPoint x="-200" y="424.16999999999996" as="sourcePoint" />
            <mxPoint x="-160" y="424.16999999999996" as="targetPoint" />
          </mxGeometry>
        </mxCell>
        <mxCell id="BiTTlBMMz1A8QfUqZxCa-71" value="경로" style="shape=ext;margin=3;double=1;whiteSpace=wrap;html=1;align=center;container=0;" parent="1" vertex="1">
          <mxGeometry x="-160" y="394.17" width="120" height="60" as="geometry" />
        </mxCell>
        <mxCell id="ymXso0ggI-foQuHuiPl7-59" value="&lt;font style=&quot;font-size: 26px;&quot;&gt;ERD 개념도&lt;/font&gt;" style="text;html=1;align=center;verticalAlign=middle;resizable=0;points=[];autosize=1;strokeColor=none;fillColor=none;" parent="1" vertex="1">
          <mxGeometry x="-920" y="-360" width="160" height="40" as="geometry" />
        </mxCell>
        <mxCell id="vxmtg55Cb_DlXkQCYcBe-1" value="평가결과" style="ellipse;whiteSpace=wrap;html=1;container=0;" parent="1" vertex="1">
          <mxGeometry x="-240" y="389.99999999999994" width="70" height="30" as="geometry" />
        </mxCell>
        <mxCell id="vxmtg55Cb_DlXkQCYcBe-4" value="&lt;font style=&quot;font-size: 26px;&quot;&gt;팀 리프래시 식스센스&lt;/font&gt;" style="text;html=1;align=center;verticalAlign=middle;resizable=0;points=[];autosize=1;strokeColor=none;fillColor=none;" parent="1" vertex="1">
          <mxGeometry x="570" y="680" width="270" height="40" as="geometry" />
        </mxCell>
        <mxCell id="JzRAc6Fi7FsVI6vPtPe_-1" value="" style="endArrow=none;html=1;rounded=0;exitX=0.871;exitY=1;exitDx=0;exitDy=0;exitPerimeter=0;" edge="1" parent="1" source="BiTTlBMMz1A8QfUqZxCa-44" target="BiTTlBMMz1A8QfUqZxCa-74">
          <mxGeometry relative="1" as="geometry">
            <mxPoint x="120" y="350" as="sourcePoint" />
            <mxPoint x="220" y="440" as="targetPoint" />
            <Array as="points">
              <mxPoint x="600" y="240" />
              <mxPoint x="760" y="240" />
              <mxPoint x="760" y="600" />
            </Array>
          </mxGeometry>
        </mxCell>
        <mxCell id="JzRAc6Fi7FsVI6vPtPe_-2" value="1" style="resizable=0;html=1;whiteSpace=wrap;align=right;verticalAlign=bottom;" connectable="0" vertex="1" parent="JzRAc6Fi7FsVI6vPtPe_-1">
          <mxGeometry x="1" relative="1" as="geometry" />
        </mxCell>
        <mxCell id="JzRAc6Fi7FsVI6vPtPe_-6" value="" style="endArrow=none;html=1;rounded=0;" edge="1" parent="1" source="BiTTlBMMz1A8QfUqZxCa-44" target="JzRAc6Fi7FsVI6vPtPe_-9">
          <mxGeometry relative="1" as="geometry">
            <mxPoint x="630" y="150" as="sourcePoint" />
            <mxPoint x="658.9024203041736" y="172.75871390576185" as="targetPoint" />
          </mxGeometry>
        </mxCell>
        <mxCell id="JzRAc6Fi7FsVI6vPtPe_-7" value="분류 세부 사항" style="ellipse;whiteSpace=wrap;html=1;container=0;" vertex="1" parent="1">
          <mxGeometry x="760" y="170" width="90" height="30" as="geometry" />
        </mxCell>
        <mxCell id="JzRAc6Fi7FsVI6vPtPe_-8" value="" style="endArrow=none;html=1;rounded=0;" edge="1" parent="1" source="JzRAc6Fi7FsVI6vPtPe_-9" target="JzRAc6Fi7FsVI6vPtPe_-7">
          <mxGeometry relative="1" as="geometry">
            <mxPoint x="714.1300000000006" y="185" as="sourcePoint" />
            <mxPoint x="800" y="140" as="targetPoint" />
          </mxGeometry>
        </mxCell>
        <mxCell id="JzRAc6Fi7FsVI6vPtPe_-9" value="분류 번호" style="ellipse;shape=doubleEllipse;margin=3;whiteSpace=wrap;html=1;align=center;" vertex="1" parent="1">
          <mxGeometry x="646.1899999999999" y="170" width="65.87" height="30" as="geometry" />
        </mxCell>
        <mxCell id="JzRAc6Fi7FsVI6vPtPe_-10" value="" style="shape=link;html=1;rounded=0;" edge="1" parent="1" source="BiTTlBMMz1A8QfUqZxCa-115" target="BiTTlBMMz1A8QfUqZxCa-129">
          <mxGeometry relative="1" as="geometry">
            <mxPoint x="40" y="-10" as="sourcePoint" />
            <mxPoint x="200" y="-10" as="targetPoint" />
          </mxGeometry>
        </mxCell>
        <mxCell id="JzRAc6Fi7FsVI6vPtPe_-11" value="N" style="resizable=0;html=1;whiteSpace=wrap;align=right;verticalAlign=bottom;" connectable="0" vertex="1" parent="JzRAc6Fi7FsVI6vPtPe_-10">
          <mxGeometry x="1" relative="1" as="geometry">
            <mxPoint x="10" y="-10" as="offset" />
          </mxGeometry>
        </mxCell>
        <mxCell id="JzRAc6Fi7FsVI6vPtPe_-12" value="" style="shape=link;html=1;rounded=0;" edge="1" parent="1" source="BiTTlBMMz1A8QfUqZxCa-44" target="BiTTlBMMz1A8QfUqZxCa-49">
          <mxGeometry relative="1" as="geometry">
            <mxPoint x="40" y="-10" as="sourcePoint" />
            <mxPoint x="200" y="-10" as="targetPoint" />
          </mxGeometry>
        </mxCell>
        <mxCell id="JzRAc6Fi7FsVI6vPtPe_-13" value="N" style="resizable=0;html=1;whiteSpace=wrap;align=right;verticalAlign=bottom;" connectable="0" vertex="1" parent="JzRAc6Fi7FsVI6vPtPe_-12">
          <mxGeometry x="1" relative="1" as="geometry">
            <mxPoint x="10" as="offset" />
          </mxGeometry>
        </mxCell>
        <mxCell id="JzRAc6Fi7FsVI6vPtPe_-14" value="" style="shape=link;html=1;rounded=0;" edge="1" parent="1" source="9UmY1VL2F1LapKhUl30l-13" target="9UmY1VL2F1LapKhUl30l-30">
          <mxGeometry relative="1" as="geometry">
            <mxPoint x="40" y="-10" as="sourcePoint" />
            <mxPoint x="200" y="-10" as="targetPoint" />
          </mxGeometry>
        </mxCell>
        <mxCell id="JzRAc6Fi7FsVI6vPtPe_-15" value="N" style="resizable=0;html=1;whiteSpace=wrap;align=right;verticalAlign=bottom;" connectable="0" vertex="1" parent="JzRAc6Fi7FsVI6vPtPe_-14">
          <mxGeometry x="1" relative="1" as="geometry">
            <mxPoint x="29" y="9" as="offset" />
          </mxGeometry>
        </mxCell>
        <mxCell id="JzRAc6Fi7FsVI6vPtPe_-16" value="" style="endArrow=none;html=1;rounded=0;" edge="1" parent="1" source="BiTTlBMMz1A8QfUqZxCa-91" target="BiTTlBMMz1A8QfUqZxCa-129">
          <mxGeometry relative="1" as="geometry">
            <mxPoint x="10" y="30" as="sourcePoint" />
            <mxPoint x="170" y="30" as="targetPoint" />
          </mxGeometry>
        </mxCell>
        <mxCell id="JzRAc6Fi7FsVI6vPtPe_-17" value="1" style="resizable=0;html=1;whiteSpace=wrap;align=right;verticalAlign=bottom;" connectable="0" vertex="1" parent="JzRAc6Fi7FsVI6vPtPe_-16">
          <mxGeometry x="1" relative="1" as="geometry">
            <mxPoint x="-20" y="10" as="offset" />
          </mxGeometry>
        </mxCell>
        <mxCell id="JzRAc6Fi7FsVI6vPtPe_-18" value="" style="endArrow=none;html=1;rounded=0;" edge="1" parent="1" source="BiTTlBMMz1A8QfUqZxCa-91" target="BiTTlBMMz1A8QfUqZxCa-49">
          <mxGeometry relative="1" as="geometry">
            <mxPoint x="10" y="40" as="sourcePoint" />
            <mxPoint x="170" y="40" as="targetPoint" />
          </mxGeometry>
        </mxCell>
        <mxCell id="JzRAc6Fi7FsVI6vPtPe_-19" value="1" style="resizable=0;html=1;whiteSpace=wrap;align=right;verticalAlign=bottom;" connectable="0" vertex="1" parent="JzRAc6Fi7FsVI6vPtPe_-18">
          <mxGeometry x="1" relative="1" as="geometry" />
        </mxCell>
        <mxCell id="JzRAc6Fi7FsVI6vPtPe_-20" value="" style="endArrow=none;html=1;rounded=0;" edge="1" parent="1" source="BiTTlBMMz1A8QfUqZxCa-91" target="9UmY1VL2F1LapKhUl30l-30">
          <mxGeometry relative="1" as="geometry">
            <mxPoint y="160" as="sourcePoint" />
            <mxPoint x="160" y="160" as="targetPoint" />
          </mxGeometry>
        </mxCell>
        <mxCell id="JzRAc6Fi7FsVI6vPtPe_-21" value="1" style="resizable=0;html=1;whiteSpace=wrap;align=right;verticalAlign=bottom;" connectable="0" vertex="1" parent="JzRAc6Fi7FsVI6vPtPe_-20">
          <mxGeometry x="1" relative="1" as="geometry" />
        </mxCell>
        <mxCell id="JzRAc6Fi7FsVI6vPtPe_-24" value="" style="shape=link;html=1;rounded=0;" edge="1" parent="1" source="9UmY1VL2F1LapKhUl30l-42" target="9UmY1VL2F1LapKhUl30l-52">
          <mxGeometry relative="1" as="geometry">
            <mxPoint x="-320" y="110" as="sourcePoint" />
            <mxPoint x="-160" y="110" as="targetPoint" />
          </mxGeometry>
        </mxCell>
        <mxCell id="JzRAc6Fi7FsVI6vPtPe_-25" value="N" style="resizable=0;html=1;whiteSpace=wrap;align=right;verticalAlign=bottom;" connectable="0" vertex="1" parent="JzRAc6Fi7FsVI6vPtPe_-24">
          <mxGeometry x="1" relative="1" as="geometry" />
        </mxCell>
        <mxCell id="JzRAc6Fi7FsVI6vPtPe_-28" value="" style="endArrow=none;html=1;rounded=0;" edge="1" parent="1" source="BiTTlBMMz1A8QfUqZxCa-91" target="9UmY1VL2F1LapKhUl30l-52">
          <mxGeometry relative="1" as="geometry">
            <mxPoint x="-330" y="120" as="sourcePoint" />
            <mxPoint x="-170" y="120" as="targetPoint" />
          </mxGeometry>
        </mxCell>
        <mxCell id="JzRAc6Fi7FsVI6vPtPe_-29" value="1" style="resizable=0;html=1;whiteSpace=wrap;align=right;verticalAlign=bottom;" connectable="0" vertex="1" parent="JzRAc6Fi7FsVI6vPtPe_-28">
          <mxGeometry x="1" relative="1" as="geometry">
            <mxPoint x="8" y="1" as="offset" />
          </mxGeometry>
        </mxCell>
        <mxCell id="JzRAc6Fi7FsVI6vPtPe_-30" value="" style="endArrow=none;html=1;rounded=0;" edge="1" parent="1" source="BiTTlBMMz1A8QfUqZxCa-91" target="ymXso0ggI-foQuHuiPl7-3">
          <mxGeometry relative="1" as="geometry">
            <mxPoint x="-530" y="160" as="sourcePoint" />
            <mxPoint x="-370" y="160" as="targetPoint" />
          </mxGeometry>
        </mxCell>
        <mxCell id="JzRAc6Fi7FsVI6vPtPe_-31" value="1" style="resizable=0;html=1;whiteSpace=wrap;align=right;verticalAlign=bottom;" connectable="0" vertex="1" parent="JzRAc6Fi7FsVI6vPtPe_-30">
          <mxGeometry x="1" relative="1" as="geometry" />
        </mxCell>
        <mxCell id="JzRAc6Fi7FsVI6vPtPe_-32" value="" style="shape=link;html=1;rounded=0;" edge="1" parent="1" source="ymXso0ggI-foQuHuiPl7-7" target="ymXso0ggI-foQuHuiPl7-3">
          <mxGeometry relative="1" as="geometry">
            <mxPoint x="-630" y="260" as="sourcePoint" />
            <mxPoint x="-470" y="260" as="targetPoint" />
          </mxGeometry>
        </mxCell>
        <mxCell id="JzRAc6Fi7FsVI6vPtPe_-33" value="N" style="resizable=0;html=1;whiteSpace=wrap;align=right;verticalAlign=bottom;" connectable="0" vertex="1" parent="JzRAc6Fi7FsVI6vPtPe_-32">
          <mxGeometry x="1" relative="1" as="geometry">
            <mxPoint x="-20" y="9" as="offset" />
          </mxGeometry>
        </mxCell>
      </root>
    </mxGraphModel>
  </diagram>
</mxfile>
